<?xml version="1.0" encoding="utf-8"?>
<!-- Generator: Adobe Illustrator 26.2.1, SVG Export Plug-In . SVG Version: 6.00 Build 0)  -->
<svg version="1.1" id="Layer_1" xmlns="http://www.w3.org/2000/svg" xmlns:xlink="http://www.w3.org/1999/xlink" x="0px" y="0px"
	 viewBox="0 0 212.9 212.9" style="enable-background:new 0 0 212.9 212.9;" xml:space="preserve">
<style type="text/css">
	.st0{fill:#2561A1;}
	.st1{fill:#FFFFFF;}
	.st2{fill:#F8CA4D;}
	.st3{fill:#B9D7FF;}
	.st4{fill:#FFDC7B;}
	.st5{fill:#82B7FF;}
	.st6{fill:#3498DB;}
	.st7{fill:#E84131;}
</style>
<g>
	<path class="st3" d="M192.9,102c-0.1,0-0.1,0-0.2,0c1.3-3,2-6.2,2-9.6c0-13.4-10.9-24.3-24.3-24.3c-4.8,0-9.2,1.4-12.9,3.7
		c-5.1-12.3-17.2-21-31.3-21c-18.7,0-33.9,15.2-33.9,33.9c0,1.4,0.1,2.8,0.3,4.2c-0.1,0-0.2,0-0.3,0c-12.5,0-22.7,10.2-22.7,22.7
		c0,12.5,10.2,22.7,22.7,22.7h100.6c8.9,0,16.1-7.2,16.1-16.1C209,109.3,201.8,102,192.9,102z"/>
	<path class="st1" d="M152.6,123.2c-0.1,0-0.2,0-0.2,0c1.5-3.6,2.4-7.5,2.4-11.6c0-16.2-13.1-29.3-29.3-29.3
		c-5.7,0-11.1,1.7-15.6,4.5c-6.1-14.9-20.7-25.3-37.8-25.3c-22.6,0-40.8,18.3-40.8,40.8c0,1.7,0.1,3.4,0.3,5c-0.1,0-0.2,0-0.3,0
		c-15.1,0-27.4,12.3-27.4,27.4s12.3,27.4,27.4,27.4h121.3c10.7,0,19.4-8.7,19.4-19.4C172,131.9,163.3,123.2,152.6,123.2z"/>
</g>
</svg>
