<?xml version="1.0" encoding="utf-8"?>
<!-- Generator: Adobe Illustrator 26.2.1, SVG Export Plug-In . SVG Version: 6.00 Build 0)  -->
<svg version="1.1" id="Layer_1" xmlns="http://www.w3.org/2000/svg" xmlns:xlink="http://www.w3.org/1999/xlink" x="0px" y="0px"
	 viewBox="0 0 212.9 212.9" style="enable-background:new 0 0 212.9 212.9;" xml:space="preserve">
<style type="text/css">
	.st0{fill:#2561A1;}
	.st1{fill:#FFFFFF;}
	.st2{fill:#F8CA4D;}
	.st3{fill:#FFDC7B;}
	.st4{fill:#B9D7FF;}
	.st5{fill:#82B7FF;}
	.st6{fill:#3498DB;}
	.st7{fill:#E84131;}
</style>
<g>
	<g>
		<ellipse transform="matrix(0.1615 -0.9869 0.9869 0.1615 -34.8377 148.0607)" class="st3" cx="69.7" cy="94.5" rx="26" ry="26"/>
		<g>
			<path class="st3" d="M69.7,58.6L69.7,58.6c-1.7,0-3.1-1.4-3.1-3.1V33.3c0-1.7,1.4-3.1,3.1-3.1l0,0c1.7,0,3.1,1.4,3.1,3.1v22.2
				C72.8,57.2,71.4,58.6,69.7,58.6z"/>
			<path class="st3" d="M69.7,158.9L69.7,158.9c-1.7,0-3.1-1.4-3.1-3.1v-22.2c0-1.7,1.4-3.1,3.1-3.1l0,0c1.7,0,3.1,1.4,3.1,3.1v22.2
				C72.8,157.5,71.4,158.9,69.7,158.9z"/>
		</g>
		<g>
			<path class="st3" d="M95.1,69.1L95.1,69.1c-1.2-1.2-1.2-3.2,0-4.4L110.8,49c1.2-1.2,3.2-1.2,4.4,0l0,0c1.2,1.2,1.2,3.2,0,4.4
				L99.5,69.1C98.3,70.4,96.3,70.4,95.1,69.1z"/>
			<path class="st3" d="M24.2,140L24.2,140c-1.2-1.2-1.2-3.2,0-4.4l15.7-15.7c1.2-1.2,3.2-1.2,4.4,0l0,0c1.2,1.2,1.2,3.2,0,4.4
				L28.6,140C27.4,141.2,25.4,141.2,24.2,140z"/>
		</g>
		<g>
			<path class="st3" d="M105.6,94.5L105.6,94.5c0-1.7,1.4-3.1,3.1-3.1h22.2c1.7,0,3.1,1.4,3.1,3.1l0,0c0,1.7-1.4,3.1-3.1,3.1h-22.2
				C107,97.7,105.6,96.3,105.6,94.5z"/>
			<path class="st3" d="M5.4,94.5L5.4,94.5c0-1.7,1.4-3.1,3.1-3.1h22.2c1.7,0,3.1,1.4,3.1,3.1l0,0c0,1.7-1.4,3.1-3.1,3.1H8.5
				C6.8,97.7,5.4,96.3,5.4,94.5z"/>
		</g>
		<g>
			<path class="st3" d="M95.1,119.9L95.1,119.9c1.2-1.2,3.2-1.2,4.4,0l15.7,15.7c1.2,1.2,1.2,3.2,0,4.4l0,0c-1.2,1.2-3.2,1.2-4.4,0
				l-15.7-15.7C93.9,123.1,93.9,121.1,95.1,119.9z"/>
			<path class="st3" d="M24.2,49L24.2,49c1.2-1.2,3.2-1.2,4.4,0l15.7,15.7c1.2,1.2,1.2,3.2,0,4.4l0,0c-1.2,1.2-3.2,1.2-4.4,0
				L24.2,53.4C23,52.2,23,50.3,24.2,49z"/>
		</g>
	</g>
	<path class="st1" d="M188.9,140c-0.1,0-0.2,0-0.2,0c1.5-3.6,2.4-7.5,2.4-11.6c0-16.2-13.1-29.3-29.3-29.3c-5.7,0-11.1,1.7-15.6,4.5
		c-6.1-14.9-20.7-25.3-37.8-25.3c-22.6,0-40.8,18.3-40.8,40.8c0,1.7,0.1,3.4,0.3,5c-0.1,0-0.2,0-0.3,0c-15.1,0-27.4,12.3-27.4,27.4
		c0,15.1,12.3,27.4,27.4,27.4h121.3c10.7,0,19.4-8.7,19.4-19.4C208.4,148.7,199.7,140,188.9,140z"/>
</g>
</svg>
