<?xml version="1.0" encoding="utf-8"?>
<!-- Generator: Adobe Illustrator 26.2.1, SVG Export Plug-In . SVG Version: 6.00 Build 0)  -->
<svg version="1.1" id="Layer_1" xmlns="http://www.w3.org/2000/svg" xmlns:xlink="http://www.w3.org/1999/xlink" x="0px" y="0px"
	 viewBox="0 0 212.9 212.9" style="enable-background:new 0 0 212.9 212.9;" xml:space="preserve">
<style type="text/css">
	.st0{fill:#2561A1;}
	.st1{fill:#FFFFFF;}
	.st2{fill:#F8CA4D;}
	.st3{fill:#FFDC7B;}
	.st4{fill:#B9D7FF;}
	.st5{fill:#82B7FF;}
	.st6{fill:#3498DB;}
	.st7{fill:#E84131;}
</style>
<g>
	<path class="st1" d="M162,117.5c-0.1,0-0.2,0-0.2,0c1.5-3.6,2.4-7.5,2.4-11.6c0-16.2-13.1-29.3-29.3-29.3c-5.7,0-11.1,1.7-15.6,4.5
		c-6.1-14.9-20.7-25.3-37.8-25.3c-22.6,0-40.8,18.3-40.8,40.8c0,1.7,0.1,3.4,0.3,5c-0.1,0-0.2,0-0.3,0c-15.1,0-27.4,12.3-27.4,27.4
		s12.3,27.4,27.4,27.4H162c10.7,0,19.4-8.7,19.4-19.4C181.4,126.2,172.7,117.5,162,117.5z"/>
	<path class="st1" d="M146.9,62.4H84.8c-1.9,0-3.4-1.5-3.4-3.4l0,0c0-1.9,1.5-3.4,3.4-3.4h62.1c1.9,0,3.4,1.5,3.4,3.4l0,0
		C150.3,60.9,148.7,62.4,146.9,62.4z"/>
	<path class="st1" d="M197.1,62.4h-36c-1.9,0-3.4-1.5-3.4-3.4l0,0c0-1.9,1.5-3.4,3.4-3.4h36c1.9,0,3.4,1.5,3.4,3.4l0,0
		C200.5,60.9,199,62.4,197.1,62.4z"/>
	<path class="st1" d="M172.4,83.2h-37.1c-1.9,0-3.4-1.5-3.4-3.4l0,0c0-1.9,1.5-3.4,3.4-3.4h37.1c1.9,0,3.4,1.5,3.4,3.4l0,0
		C175.7,81.7,174.2,83.2,172.4,83.2z"/>
	<path class="st1" d="M196.9,83.2h-9.8c-1.9,0-3.4-1.5-3.4-3.4l0,0c0-1.9,1.5-3.4,3.4-3.4h9.8c1.9,0,3.4,1.5,3.4,3.4l0,0
		C200.3,81.7,198.8,83.2,196.9,83.2z"/>
	<path class="st1" d="M196.9,124h-61.7c-1.9,0-3.4-1.5-3.4-3.4l0,0c0-1.9,1.5-3.4,3.4-3.4h61.7c1.9,0,3.4,1.5,3.4,3.4l0,0
		C200.3,122.5,198.8,124,196.9,124z"/>
	<path class="st1" d="M196.9,156.3h-61.7c-1.9,0-3.4-1.5-3.4-3.4l0,0c0-1.9,1.5-3.4,3.4-3.4h61.7c1.9,0,3.4,1.5,3.4,3.4l0,0
		C200.3,154.8,198.8,156.3,196.9,156.3z"/>
</g>
</svg>
