<?xml version="1.0" encoding="utf-8"?>
<!-- Generator: Adobe Illustrator 26.2.1, SVG Export Plug-In . SVG Version: 6.00 Build 0)  -->
<svg version="1.1" id="Layer_1" xmlns="http://www.w3.org/2000/svg" xmlns:xlink="http://www.w3.org/1999/xlink" x="0px" y="0px"
	 viewBox="0 0 212.9 212.9" style="enable-background:new 0 0 212.9 212.9;" xml:space="preserve">
<style type="text/css">
	.st0{fill:#2561A1;}
	.st1{fill:#FFFFFF;}
	.st2{fill:#F8CA4D;}
	.st3{fill:#FFDC7B;}
	.st4{fill:#B9D7FF;}
	.st5{fill:#82B7FF;}
	.st6{fill:#3498DB;}
	.st7{fill:#E84131;}
</style>
<g>
	<path class="st1" d="M109.6,182.2h-4.4c-2.5,0-4.6-2.1-4.6-4.6V33.2c0-2.5,2.1-4.6,4.6-4.6h4.4c2.5,0,4.6,2.1,4.6,4.6v144.4
		C114.2,180.1,112.2,182.2,109.6,182.2z"/>
	<g>
		<path class="st1" d="M134.1,39.8c1.8,1.8,1.8,4.7,0,6.5l-26.6,26.6l-0.1-0.1l-0.1,0.1L80.7,46.3c-1.8-1.8-1.8-4.7,0-6.5l3.1-3.1
			c1.8-1.8,4.7-1.8,6.5,0l13.9,13.9c1.8,1.8,4.7,1.8,6.5,0l13.9-13.9c1.8-1.8,4.7-1.8,6.5,0L134.1,39.8z"/>
		<path class="st1" d="M80.7,171c-1.8-1.8-1.8-4.7,0-6.5l26.6-26.6l0.1,0.1l0.1-0.1l26.6,26.6c1.8,1.8,1.8,4.7,0,6.5l-3.1,3.1
			c-1.8,1.8-4.7,1.8-6.5,0l-13.9-13.9c-1.8-1.8-4.7-1.8-6.5,0l-13.9,13.9c-1.8,1.8-4.7,1.8-6.5,0L80.7,171z"/>
	</g>
	<path class="st1" d="M30.7,107.6v-4.4c0-2.5,2.1-4.6,4.6-4.6h144.4c2.5,0,4.6,2.1,4.6,4.6v4.4c0,2.5-2.1,4.6-4.6,4.6H35.3
		C32.7,112.2,30.7,110.1,30.7,107.6z"/>
	<g>
		<path class="st1" d="M173,132.1c-1.8,1.8-4.7,1.8-6.5,0L140,105.5l0.1-0.1l-0.1-0.1l26.6-26.6c1.8-1.8,4.7-1.8,6.5,0l3.1,3.1
			c1.8,1.8,1.8,4.7,0,6.5l-13.9,13.9c-1.8,1.8-1.8,4.7,0,6.5l13.9,13.9c1.8,1.8,1.8,4.7,0,6.5L173,132.1z"/>
		<path class="st1" d="M41.8,78.7c1.8-1.8,4.7-1.8,6.5,0l26.6,26.6l-0.1,0.1l0.1,0.1l-26.6,26.6c-1.8,1.8-4.7,1.8-6.5,0l-3.1-3.1
			c-1.8-1.8-1.8-4.7,0-6.5l13.9-13.9c1.8-1.8,1.8-4.7,0-6.5L38.7,88.3c-1.8-1.8-1.8-4.7,0-6.5L41.8,78.7z"/>
	</g>
	<path class="st1" d="M70.8,142.1L70.8,142.1c-1.8-1.8-1.8-4.7,0-6.5l66.9-66.9c1.8-1.8,4.7-1.8,6.5,0l0,0c1.8,1.8,1.8,4.7,0,6.5
		l-66.9,66.9C75.5,143.9,72.6,143.9,70.8,142.1z"/>
	<g>
		<path class="st1" d="M151.5,85.3c0,2.5-2.1,4.6-4.6,4.6l-23.9,0l0-0.1h-0.1V65.9c0-2.5,2.1-4.6,4.6-4.6h0c2.5,0,4.6,2.1,4.6,4.6
			v10.3c0,2.5,2.1,4.6,4.6,4.6l10.3,0C149.5,80.7,151.5,82.8,151.5,85.3L151.5,85.3z"/>
		<path class="st1" d="M63.3,125.5c0-2.5,2.1-4.6,4.6-4.6l23.9,0l0,0.1h0.1v23.9c0,2.5-2.1,4.6-4.6,4.6h0c-2.5,0-4.6-2.1-4.6-4.6
			v-10.3c0-2.5-2.1-4.6-4.6-4.6l-10.3,0C65.4,130.1,63.3,128,63.3,125.5L63.3,125.5z"/>
	</g>
	<path class="st1" d="M70.8,68.7L70.8,68.7c1.8-1.8,4.7-1.8,6.5,0l66.9,66.9c1.8,1.8,1.8,4.7,0,6.5l0,0c-1.8,1.8-4.7,1.8-6.5,0
		L70.8,75.2C69,73.4,69,70.5,70.8,68.7z"/>
	<g>
		<path class="st1" d="M127.5,149.5c-2.5,0-4.6-2.1-4.6-4.6l0-23.9l0.1,0v-0.1h23.9c2.5,0,4.6,2.1,4.6,4.6v0c0,2.5-2.1,4.6-4.6,4.6
			h-10.3c-2.5,0-4.6,2.1-4.6,4.6l0,10.3C132.1,147.4,130,149.5,127.5,149.5L127.5,149.5z"/>
		<path class="st1" d="M87.4,61.3c2.5,0,4.6,2.1,4.6,4.6l0,23.9l-0.1,0v0.1H67.9c-2.5,0-4.6-2.1-4.6-4.6l0,0c0-2.5,2.1-4.6,4.6-4.6
			h10.3c2.5,0,4.6-2.1,4.6-4.6l0-10.3C82.8,63.4,84.8,61.3,87.4,61.3L87.4,61.3z"/>
	</g>
</g>
</svg>
