<?xml version="1.0" encoding="utf-8"?>
<!-- Generator: Adobe Illustrator 26.2.1, SVG Export Plug-In . SVG Version: 6.00 Build 0)  -->
<svg version="1.1" id="Layer_1" xmlns="http://www.w3.org/2000/svg" xmlns:xlink="http://www.w3.org/1999/xlink" x="0px" y="0px"
	 viewBox="0 0 212.9 212.9" style="enable-background:new 0 0 212.9 212.9;" xml:space="preserve">
<style type="text/css">
	.st0{fill:#2561A1;}
	.st1{fill:#FFFFFF;}
	.st2{fill:#F8CA4D;}
	.st3{fill:#FFDC7B;}
	.st4{fill:#B9D7FF;}
	.st5{fill:#82B7FF;}
	.st6{fill:#3498DB;}
	.st7{fill:#E84131;}
</style>
<g>
	<path class="st4" d="M171.5,74.2c-0.1,0-0.2,0-0.2,0c1.5-3.6,2.4-7.5,2.4-11.6c0-16.2-13.1-29.3-29.3-29.3
		c-5.7,0-11.1,1.7-15.6,4.5c-6.1-14.9-20.7-25.3-37.8-25.3c-22.6,0-40.8,18.3-40.8,40.8c0,1.7,0.1,3.4,0.3,5c-0.1,0-0.2,0-0.3,0
		c-15.1,0-27.4,12.3-27.4,27.4S35.1,113,50.2,113h121.3c10.7,0,19.4-8.7,19.4-19.4C190.9,82.9,182.2,74.2,171.5,74.2z"/>
	<path class="st4" d="M59.2,160.9c-3.3,6.9-11.5,9.7-18.4,6.5c-6.9-3.3-9.7-11.5-6.5-18.4c3.3-6.9,24.6-19.4,24.6-19.4
		S62.5,154,59.2,160.9z"/>
	<path class="st4" d="M179.3,160.9c-3.3,6.9-11.5,9.7-18.4,6.5c-6.9-3.3-9.7-11.5-6.5-18.4c3.3-6.9,24.6-19.4,24.6-19.4
		S182.6,154,179.3,160.9z"/>
	<polygon class="st3" points="96,124.8 83.5,162.8 100.7,162.8 89.6,201.4 130.2,146.9 109.2,146.9 117.2,124.8 	"/>
</g>
</svg>
