<?xml version="1.0" encoding="utf-8"?>
<!-- Generator: Adobe Illustrator 26.2.1, SVG Export Plug-In . SVG Version: 6.00 Build 0)  -->
<svg version="1.1" id="Layer_1" xmlns="http://www.w3.org/2000/svg" xmlns:xlink="http://www.w3.org/1999/xlink" x="0px" y="0px"
	 viewBox="0 0 212.9 212.9" style="enable-background:new 0 0 212.9 212.9;" xml:space="preserve">
<style type="text/css">
	.st0{fill:#2561A1;}
	.st1{fill:#FFFFFF;}
	.st2{fill:#F8CA4D;}
	.st3{fill:#FFDC7B;}
	.st4{fill:#B9D7FF;}
	.st5{fill:#82B7FF;}
	.st6{fill:#3498DB;}
	.st7{fill:#E84131;}
</style>
<g>
	
		<ellipse transform="matrix(0.8941 -0.4479 0.4479 0.8941 -36.5803 59.1974)" class="st2" cx="106.9" cy="106.9" rx="30.7" ry="30.7"/>
	<g>
		<path class="st2" d="M106.9,64.6L106.9,64.6c-2,0-3.7-1.6-3.7-3.7V34.8c0-2,1.6-3.7,3.7-3.7l0,0c2,0,3.7,1.6,3.7,3.7v26.2
			C110.5,63,108.9,64.6,106.9,64.6z"/>
		<path class="st2" d="M106.9,182.8L106.9,182.8c-2,0-3.7-1.6-3.7-3.7v-26.2c0-2,1.6-3.7,3.7-3.7l0,0c2,0,3.7,1.6,3.7,3.7v26.2
			C110.5,181.1,108.9,182.8,106.9,182.8z"/>
	</g>
	<g>
		<path class="st2" d="M136.8,77L136.8,77c-1.4-1.4-1.4-3.8,0-5.2l18.5-18.5c1.4-1.4,3.8-1.4,5.2,0l0,0c1.4,1.4,1.4,3.8,0,5.2
			L142,77C140.6,78.5,138.2,78.5,136.8,77z"/>
		<path class="st2" d="M53.3,160.6L53.3,160.6c-1.4-1.4-1.4-3.8,0-5.2l18.5-18.5c1.4-1.4,3.8-1.4,5.2,0l0,0c1.4,1.4,1.4,3.8,0,5.2
			l-18.5,18.5C57,162,54.7,162,53.3,160.6z"/>
	</g>
	<g>
		<path class="st2" d="M149.2,106.9L149.2,106.9c0-2,1.6-3.7,3.7-3.7H179c2,0,3.7,1.6,3.7,3.7l0,0c0,2-1.6,3.7-3.7,3.7h-26.2
			C150.8,110.6,149.2,109,149.2,106.9z"/>
		<path class="st2" d="M31,106.9L31,106.9c0-2,1.6-3.7,3.7-3.7h26.2c2,0,3.7,1.6,3.7,3.7l0,0c0,2-1.6,3.7-3.7,3.7H34.7
			C32.7,110.6,31,109,31,106.9z"/>
	</g>
	<g>
		<path class="st2" d="M136.8,136.9L136.8,136.9c1.4-1.4,3.8-1.4,5.2,0l18.5,18.5c1.4,1.4,1.4,3.8,0,5.2l0,0c-1.4,1.4-3.8,1.4-5.2,0
			l-18.5-18.5C135.4,140.6,135.4,138.3,136.8,136.9z"/>
		<path class="st2" d="M53.3,53.3L53.3,53.3c1.4-1.4,3.8-1.4,5.2,0l18.5,18.5c1.4,1.4,1.4,3.8,0,5.2l0,0c-1.4,1.4-3.8,1.4-5.2,0
			L53.3,58.5C51.8,57.1,51.8,54.8,53.3,53.3z"/>
	</g>
</g>
</svg>
